{"title":"Dead Snow 2009 1080p BRRip H264","uid":5804041,"size":3914816287,"categoryP":"video","categoryS":"hd___movies","magnet":"?xt=urn:btih:c5e0a40c63ecfed69f6044981fbc762b2bf9c2b6&amp;dn=Dead+Snow+2009+1080p+BRRip+H264&amp;tr=udp%3A%2F%2Ftracker.openbittorrent.com%3A80&amp;tr=udp%3A%2F%2Fopen.demonii.com%3A1337&amp;tr=udp%3A%2F%2Ftracker.coppersurfer.tk%3A6969&amp;tr=udp%3A%2F%2Fexodus.desync.com%3A6969","seeders":0,"leechers":0,"uploader":"neon","files":-1,"time":1283376317,"description":"Movie Information:\n &lt;a href=&quot;\nhttp://www.imdb.com/title/tt1278340/&quot; rel=&quot;nofollow&quot; target=&quot;_NEW&quot;&gt;\nhttp://www.imdb.com/title/tt1278340/&lt;/a&gt;\n\nRelease Date: 9 January 2009 (Norway)\n\nGenre: Comedy | Horror\n\nPlot: While investigating a young nun's rape, a corrupt New York City police detective, with a serious drug and gambling addiction, tries to change his ways and find forgiveness.\n\nCast:\nVegar Hoel ... Martin\nStig Frode Henriksen ... Roy\nCharlotte Frogner ... Hanna\nLasse Valdal ... Vegard\nEvy Kasseth RÃƒÂ¸sten ... Liv\nJeppe Laursen ... Erlend\nJenny Skavlan ... Chris\nAne Dahl Torp ... Sara\nBjÃƒÂ¸rn Sundquist ... The Wanderer\nÃƒËœrjan Gamst ... Herzog\n &lt;a href=&quot;\nhttp://www.imagebam.com/image/30c8d395841556&quot; rel=&quot;nofollow&quot; target=&quot;_NEW&quot;&gt;\nhttp://www.imagebam.com/image/30c8d395841556&lt;/a&gt;\n\n\nFile Name\n\nDead Snow 2009 1080p BRRip H264.mp4\n\nFile Size\nFormat : MPEG-4\nFormat profile : Base Media\nCodec ID : isom\nFile size : 3.65 GiB\nDuration : 1h 31mn\nOverall bit rate : 5 704 Kbps\n\nVideo\nID : 1\nFormat : AVC\nFormat/Info : Advanced Video Codec\nFormat profile : &lt;a class=&quot;__cf_email__&quot; href=&quot;/cdn-cgi/l/email-protection&quot; data-cfemail=&quot;b7ffded0dff7fb839986&quot;&gt;[email&amp;#160;protected]&lt;/a&gt;&lt;script data-cfhash='f9e31' type=&quot;text/javascript&quot;&gt;\n/* &lt;![CDATA[ */!function(){try{var t=&quot;currentScript&quot;in document?document.currentScript:function(){for(var t=document.getElementsByTagName(&quot;script&quot;),e=t.length;e--;)if(t[e].getAttribute(&quot;data-cfhash&quot;))return t[e]}();if(t&amp;&amp;t.previousSibling){var e,r,n,i,c=t.previousSibling,a=c.getAttribute(&quot;data-cfemail&quot;);if(a){for(e=&quot;&quot;,r=parseInt(a.substr(0,2),16),n=2;a.length-n;n+=2)i=parseInt(a.substr(n,2),16)^r,e+=String.fromCharCode(i);e=document.createTextNode(e),c.parentNode.replaceChild(e,c)}t.parentNode.removeChild(t);}}catch(u){}}()/* ]]&gt; */&lt;/script&gt;\nFormat settings, CABAC : Yes\nFormat settings, ReFrames : 3 frames\nCodec ID : avc1\nCodec ID/Info : Advanced Video Coding\nDuration : 1h 31mn\nBit rate mode : Variable\nBit rate : 5 199 Kbps\nMaximum bit rate : 27.8 Mbps\nWidth : 1 920 pixels\nHeight : 1 080 pixels\nDisplay aspect ratio : 16:9\nFrame rate mode : Constant\nFrame rate : 24.000 fps\nResolution : 24 bits\nColorimetry : 4:2:0\nScan type : Progressive\nBits/(Pixel*Frame) : 0.104\nStream size : 3.32 GiB (91%)\n\nAudio\nID : 2\nFormat : AAC\nFormat/Info : Advanced Audio Codec\nFormat version : Version 4\nFormat profile : LC\nFormat settings, SBR : No\nCodec ID : 40\nDuration : 1h 31mn\nBit rate mode : Variable\nBit rate : 512 Kbps\nMaximum bit rate : 524 Kbps\nChannel(s) : 2 channels\nChannel positions : L R\nSampling rate : 48.0 KHz\nResolution : 16 bits\nStream size : 335 MiB (9%)\n\nEnglish SRT : External\n\nLanguage : English\n","torrent":{"xt":"urn:btih:c5e0a40c63ecfed69f6044981fbc762b2bf9c2b6","amp;dn":"Dead+Snow+2009+1080p+BRRip+H264","amp;tr":["udp%3A%2F%2Ftracker.openbittorrent.com%3A80","udp%3A%2F%2Fopen.demonii.com%3A1337","udp%3A%2F%2Ftracker.coppersurfer.tk%3A6969","udp%3A%2F%2Fexodus.desync.com%3A6969"],"infoHash":"c5e0a40c63ecfed69f6044981fbc762b2bf9c2b6","infoHashBuffer":{"type":"Buffer","data":[197,224,164,12,99,236,254,214,159,96,68,152,31,188,118,43,43,249,194,182]},"announce":[],"urlList":[]}}